<svg xmlns="http://www.w3.org/2000/svg" xmlns:xlink="http://www.w3.org/1999/xlink" width="990.56" height="955.156" viewBox="0 0 990.56 955.156">
  <defs>
    <clipPath id="clip-path">
      <rect x="-89" y="230" width="525.604" height="331.148" fill="none"/>
    </clipPath>
  </defs>
  <g id="Group_4" data-name="Group 4" transform="translate(-38.716 -10116.879)">
    <g id="download_1_" data-name="download (1)" transform="matrix(0.643, 0.766, -0.766, 0.643, 420.923, 9930.537)">
      <g id="Group_2" data-name="Group 2" transform="translate(531.783 36.713)">
        <g id="Group_1" data-name="Group 1">
          <path id="Path_1" data-name="Path 1" d="M329.2,111.949c-15.063-12.653-26.51-15.063-33.74-6.025l-42.175,50.008-28.318,33.74L180.984,152.92l78.928-93.991q38.862-47,101.221,5.423l60.251,50.611,63.866,53.623c40.97,34.343,48.8,67.481,22.9,98.209l-55.431,66.276-53.021,63.263-47.6,56.636c-26.51,31.33-60.251,30.125-101.221-4.82l-63.866-53.623-60.251-50.611L64.7,292.1l36.15-43.38,67.481,56.033,54.828,47,57.238,48.2c15.063,12.653,26.51,15.063,33.74,6.025l42.175-50.008,27.715-33.138,27.715-33.138,42.175-50.008c7.23-8.435,3.012-19.28-12.05-32.535l-57.238-48.2Z" transform="translate(-64.7 -36.713)" fill="#4083c5"/>
        </g>
      </g>
      <g id="Group_3" data-name="Group 3" transform="translate(210.152 39.447)">
        <path id="Path_2" data-name="Path 2" d="M205.217,399.475c15.063,12.653,26.51,15.063,33.74,6.025l42.176-50.008,28.318-33.74,43.983,37.355L274.505,453.1q-38.862,47-101.221-5.423l-60.251-50.611L49.168,343.442C8.2,309.1.365,275.961,26.272,245.233L81.7,178.957,135.929,116.3l47.6-56.636c26.51-31.33,60.251-30.125,101.221,4.82L348.613,118.1l60.251,50.611,62.058,51.816-36.15,43.38-67.481-56.033-55.431-47-57.238-48.2c-15.063-12.653-26.51-15.063-33.74-6.025l-42.175,50.008L150.991,189.8,123.276,222.94,81.1,272.948c-7.23,8.435-3.013,19.28,12.05,32.535l57.238,48.2Z" transform="translate(-11.318 -37.166)" fill="#262a62"/>
        <g id="Scroll_Group_1" data-name="Scroll Group 1" transform="translate(199.17 167.124)" clip-path="url(#clip-path)" style="isolation: isolate">
          <path id="Path_3" data-name="Path 3" d="M205.217,399.475c15.063,12.653,26.51,15.063,33.74,6.025l42.176-50.008,28.318-33.74,43.983,37.355L274.505,453.1q-38.862,47-101.221-5.423l-60.251-50.611L49.168,343.442C8.2,309.1.365,275.961,26.272,245.233L81.7,178.957,135.929,116.3l47.6-56.636c26.51-31.33,60.251-30.125,101.221,4.82L348.613,118.1l60.251,50.611,62.058,51.816-36.15,43.38-67.481-56.033-55.431-47-57.238-48.2c-15.063-12.653-26.51-15.063-33.74-6.025l-42.175,50.008L150.991,189.8,123.276,222.94,81.1,272.948c-7.23,8.435-3.013,19.28,12.05,32.535l57.238,48.2Z" transform="translate(-11.318 -37.166)" fill="#262a62"/>
        </g>
      </g>
    </g>
  </g>
</svg>
